<?xml version="1.0" encoding="UTF-8" standalone="no"?>
<svg
   xmlns:osb="http://www.openswatchbook.org/uri/2009/osb"
   xmlns:dc="http://purl.org/dc/elements/1.1/"
   xmlns:cc="http://creativecommons.org/ns#"
   xmlns:rdf="http://www.w3.org/1999/02/22-rdf-syntax-ns#"
   xmlns:svg="http://www.w3.org/2000/svg"
   xmlns="http://www.w3.org/2000/svg"
   xmlns:sodipodi="http://sodipodi.sourceforge.net/DTD/sodipodi-0.dtd"
   xmlns:inkscape="http://www.inkscape.org/namespaces/inkscape"
   width="500mm"
   height="500mm"
   viewBox="0 0 500 500"
   version="1.1"
   id="svg8"
   inkscape:version="1.0.2 (e86c870879, 2021-01-15, custom)"
   sodipodi:docname="snakypy_transparent.svg"
   inkscape:export-filename="/home/william/github/snakypy/snakypy-static/logotypes/snakypy/snakypy_logo.svg.png"
   inkscape:export-xdpi="68.986397"
   inkscape:export-ydpi="68.986397">
  <defs
     id="defs2">
    <linearGradient
       id="linearGradient6149"
       osb:paint="solid">
      <stop
         style="stop-color:#ffed08;stop-opacity:1;"
         offset="0"
         id="stop6147" />
    </linearGradient>
    <linearGradient
       id="linearGradient6022"
       osb:paint="solid">
      <stop
         style="stop-color:#2e3436;stop-opacity:1;"
         offset="0"
         id="stop6020" />
    </linearGradient>
  </defs>
  <sodipodi:namedview
     id="base"
     pagecolor="#ffffff"
     bordercolor="#666666"
     borderopacity="1.0"
     inkscape:pageopacity="0.0"
     inkscape:pageshadow="2"
     inkscape:zoom="0.25"
     inkscape:cx="218.22677"
     inkscape:cy="969.73788"
     inkscape:document-units="mm"
     inkscape:current-layer="layer3"
     showgrid="false"
     inkscape:window-width="1920"
     inkscape:window-height="1016"
     inkscape:window-x="0"
     inkscape:window-y="27"
     inkscape:window-maximized="1"
     showguides="false"
     inkscape:document-rotation="0"
     inkscape:snap-object-midpoints="false">
    <inkscape:grid
       type="xygrid"
       id="grid4551" />
  </sodipodi:namedview>
  <metadata
     id="metadata5">
    <rdf:RDF>
      <cc:Work
         rdf:about="">
        <dc:format>image/svg+xml</dc:format>
        <dc:type
           rdf:resource="http://purl.org/dc/dcmitype/StillImage" />
        <dc:title />
      </cc:Work>
    </rdf:RDF>
  </metadata>
  <g
     inkscape:groupmode="layer"
     id="layer12"
     inkscape:label="background_document"
     style="display:none"
     transform="translate(0,203)"
     sodipodi:insensitive="true">
    <rect
       style="display:inline;opacity:1;fill:#434343;fill-opacity:1;fill-rule:nonzero;stroke:none;stroke-width:1.00987;stroke-linecap:round;stroke-linejoin:miter;stroke-miterlimit:4;stroke-dasharray:none;stroke-opacity:1"
       id="rect6368"
       width="500"
       height="500"
       x="5.6843419e-14"
       y="-203"
       inkscape:export-xdpi="69.392799"
       inkscape:export-ydpi="69.392799"
       sodipodi:insensitive="true" />
  </g>
  <g
     inkscape:groupmode="layer"
     id="layer13"
     inkscape:label="snakypy_background"
     style="display:inline"
     transform="translate(0,203)" />
  <g
     inkscape:groupmode="layer"
     id="layer3"
     inkscape:label="snakypy_snake"
     style="display:inline"
     transform="translate(0,203)">
    <g
       id="g901">
      <path
         style="fill:#fcd441;fill-opacity:1;stroke:none;stroke-width:1.17359px;stroke-linecap:butt;stroke-linejoin:miter;stroke-opacity:1"
         d="m 198.82544,17.399016 c -6.68771,-1.084443 -14.35192,-4.121863 -22.12949,-7.386023 5.63622,5.005071 13.21182,8.652569 21.60339,11.728889 1.08744,-0.04445 2.03452,-3.690373 0.5261,-4.342866 z"
         id="path847"
         inkscape:connector-curvature="0"
         sodipodi:nodetypes="cccc" />
      <path
         id="path6097-1"
         d="m 287.40777,-150.99077 c -22.08694,3.6084 -44.11661,7.64134 -62.92535,35.64898 12.52717,9.26442 15.21383,22.77461 17.925,36.274275 0,0 -97.91902,-19.258091 -135.74158,81.1407836 -13.267774,35.2188354 35.17705,143.1434014 74.48744,203.8836814 21.87617,43.41935 100.93502,47.36325 129.09443,-2.4412 10.53608,-16.69399 88.44119,-198.5147028 105.68194,-309.55836 -6.57738,-23.87973 -28.14698,-33.83542 -60.41493,-33.86202 -6.70049,26.01405 -9.80117,50.433829 -26.6211,71.137262 -2.8797,-33.917362 -14.22541,-65.519642 -41.48585,-82.223402 z M 282.5936,18.030951 c 12.402,21.89571 26.67383,26.377201 26.67383,26.377201 -2.77712,20.252229 -12.81686,42.10967 -21.63537,58.682718 -12.58692,25.17937 -49.84052,40.68638 -77.3157,9.59787 -9.87862,-14.654558 -23.0504,-40.788803 -28.19414,-59.389141 43.98076,9.415804 73.41353,1.875787 100.47138,-35.268648 z"
         style="display:inline;fill:#ffd641;fill-opacity:0.984314;fill-rule:nonzero;stroke:#306998;stroke-width:8.741;stroke-linecap:round;stroke-linejoin:round;stroke-miterlimit:4;stroke-dasharray:none;stroke-opacity:1"
         inkscape:connector-curvature="0" />
      <text
         xml:space="preserve"
         style="font-style:normal;font-weight:normal;font-size:12.9467px;line-height:1.25;font-family:sans-serif;letter-spacing:0px;word-spacing:0px;display:inline;fill:#000000;fill-opacity:1;stroke:none;stroke-width:0.323667"
         x="390.83231"
         y="-109.39845"
         id="text6446-5"
         transform="scale(0.98199849,1.0183315)"
         inkscape:export-xdpi="507.71533"
         inkscape:export-ydpi="507.71533"><tspan
           sodipodi:role="line"
           id="tspan6444-3"
           x="390.83231"
           y="-109.39845"
           style="font-size:5.61024px;fill:#ffffff;fill-opacity:1;stroke:#306998;stroke-width:0.323667;stroke-opacity:1">Ⓡ</tspan></text>
      <path
         style="display:inline;fill:#306896;fill-opacity:1;stroke:none;stroke-width:1.17359px;stroke-linecap:butt;stroke-linejoin:miter;stroke-opacity:1"
         d="m 280.37861,-89.054366 -0.8955,8.505888 c 2.25896,0.754629 7.2106,-3.122531 7.2106,-3.122531 -1.61992,-2.386132 -3.62548,-4.774526 -6.3151,-5.383357 z"
         id="path6427-0"
         inkscape:connector-curvature="0"
         sodipodi:nodetypes="cccc"
         inkscape:transform-center-x="-0.28485725"
         inkscape:transform-center-y="0.10116926"
         inkscape:export-xdpi="507.71423"
         inkscape:export-ydpi="507.71423" />
      <g
         id="g886">
        <path
           inkscape:export-ydpi="507.71423"
           inkscape:export-xdpi="507.71423"
           sodipodi:nodetypes="cscssscc"
           inkscape:connector-curvature="0"
           id="path6088-9"
           d="m 293.07861,103.91868 c -2.43807,-47.664758 4.61067,-74.995563 16.91446,-107.7578059 16.00609,-42.6206351 57.65568,-69.5593321 81.6066,-104.0695541 -35.98746,53.696906 -64.01359,101.3940433 -63.79318,166.246803 0.13573,39.938918 3.11455,47.840457 -8.04281,80.157007 -26.43934,76.57961 -126.54081,66.5064 -154.80358,16.53956 -3.60947,-6.38128 -6.33242,-43.06221 8.18809,-53.00199 28.15924,71.65222 126.81909,67.83057 119.93042,1.88598 z"
           style="display:inline;fill:#306998;fill-opacity:1;stroke:#306998;stroke-width:8.871;stroke-linecap:round;stroke-linejoin:round;stroke-miterlimit:4;stroke-dasharray:17.742, 8.871;stroke-dashoffset:0;stroke-opacity:1;paint-order:markers fill stroke" />
        <path
           inkscape:export-ydpi="507.71423"
           inkscape:export-xdpi="507.71423"
           sodipodi:nodetypes="ccccccccccc"
           inkscape:connector-curvature="0"
           id="path4560-7"
           d="m 176.69595,10.012993 c 46.57422,16.52102 69.21327,-9.157744 64.54724,-38.141609 -5.58168,-26.480499 -41.34097,-39.077565 -80.47447,-12.993253 -18.79617,12.46311 -17.26478,37.861988 -11.73589,65.80464 10.97124,59.847449 34.58456,106.170169 50.29658,112.329049 26.00615,10.47618 42.3156,-10.76099 38.56068,-31.01626 C 220.29812,46.053186 210.99686,88.344959 210.99686,88.344959 l 0.59442,16.155821 c 2.4061,-1.78257 -13.71782,28.35588 -16.07318,-16.365454 -6.76687,-22.651367 -8.36988,-41.733236 -3.78187,-72.698923 -4.88994,-1.955967 -10.15034,-3.467443 -15.04028,-5.42341 z"
           style="display:inline;fill:#306998;fill-opacity:1;stroke:#306998;stroke-width:8.871;stroke-linecap:round;stroke-linejoin:round;stroke-miterlimit:4;stroke-dasharray:17.742, 8.871;stroke-dashoffset:0;stroke-opacity:1" />
        <ellipse
           inkscape:export-ydpi="507.71423"
           inkscape:export-xdpi="507.71423"
           ry="6.6684446"
           rx="6.520257"
           cy="-24.437151"
           cx="207.74368"
           id="path4562-0"
           style="display:inline;fill:#fcd441;fill-opacity:1;fill-rule:evenodd;stroke:none;stroke-width:0.261188;stroke-miterlimit:4;stroke-dasharray:none;stroke-opacity:1" />
        <path
           inkscape:export-ydpi="507.71423"
           inkscape:export-xdpi="507.71423"
           sodipodi:nodetypes="cccc"
           inkscape:connector-curvature="0"
           id="path6086-3"
           d="m 234.78469,2.7161616 c 14.22692,20.1755574 57.1431,7.9020254 44.60006,-13.6601016 -19.87034,-29.07994 -24.05586,-53.220748 -18.44208,-61.194142 2.90674,-4.318813 9.97163,-11.458446 18.8612,-12.574178"
           style="display:inline;fill:none;stroke:#306998;stroke-width:8.8712;stroke-linecap:round;stroke-linejoin:round;stroke-miterlimit:4;stroke-dasharray:none;stroke-opacity:1" />
        <path
           inkscape:export-ydpi="507.71423"
           inkscape:export-xdpi="507.71423"
           sodipodi:nodetypes="cc"
           inkscape:connector-curvature="0"
           id="path6092-6"
           d="m 261.51442,-73.943106 c 0.39921,-6.55582 2.05448,-13.930984 5.52636,-20.207449"
           style="display:inline;fill:none;stroke:#306998;stroke-width:8.8712;stroke-linecap:round;stroke-linejoin:round;stroke-miterlimit:4;stroke-dasharray:none;stroke-opacity:1" />
        <path
           inkscape:export-ydpi="507.71423"
           inkscape:export-xdpi="507.71423"
           sodipodi:nodetypes="cccc"
           inkscape:connector-curvature="0"
           id="path6427"
           d="m 263.74952,-97.093666 7.51267,4.284747 c 0.32868,-0.520873 0.48681,-5.223365 -7.6e-4,-7.857671 -2.83332,0.53862 -5.53044,1.685571 -7.51191,3.572924 z"
           style="display:inline;fill:#306896;fill-opacity:1;stroke:none;stroke-width:1.17359px;stroke-linecap:butt;stroke-linejoin:miter;stroke-opacity:1" />
        <path
           style="fill:#306998;fill-opacity:1;stroke:none;stroke-width:0.264583px;stroke-linecap:butt;stroke-linejoin:miter;stroke-opacity:1"
           d="m 225.05217,70.831017 c 0,0 -5.94479,-6.727588 -28.3869,10.381687 1.80753,10.71323 9.13933,15.879886 12.18875,23.227906 5.49955,-9.562225 10.6986,-24.047375 16.19815,-33.609593 z"
           id="path880"
           sodipodi:nodetypes="cccc" />
      </g>
    </g>
  </g>
</svg>
