<?xml version="1.0" encoding="UTF-8" standalone="no"?>
<svg
   xmlns:dc="http://purl.org/dc/elements/1.1/"
   xmlns:cc="http://creativecommons.org/ns#"
   xmlns:rdf="http://www.w3.org/1999/02/22-rdf-syntax-ns#"
   xmlns:svg="http://www.w3.org/2000/svg"
   xmlns="http://www.w3.org/2000/svg"
   xmlns:sodipodi="http://sodipodi.sourceforge.net/DTD/sodipodi-0.dtd"
   xmlns:inkscape="http://www.inkscape.org/namespaces/inkscape"
   width="2048"
   height="793.70081"
   viewBox="0 0 541.86668 210"
   version="1.1"
   id="svg8"
   inkscape:version="1.0.2 (e86c870879, 2021-01-15, custom)"
   sodipodi:docname="snakypy.svg">
  <defs
     id="defs2" />
  <sodipodi:namedview
     id="base"
     pagecolor="#ffffff"
     bordercolor="#666666"
     borderopacity="1.0"
     inkscape:pageopacity="0.0"
     inkscape:pageshadow="2"
     inkscape:zoom="0.35"
     inkscape:cx="791.40798"
     inkscape:cy="539.59799"
     inkscape:document-units="mm"
     inkscape:current-layer="layer2"
     inkscape:document-rotation="0"
     showgrid="false"
     units="px"
     inkscape:window-width="1920"
     inkscape:window-height="1016"
     inkscape:window-x="0"
     inkscape:window-y="27"
     inkscape:window-maximized="1" />
  <metadata
     id="metadata5">
    <rdf:RDF>
      <cc:Work
         rdf:about="">
        <dc:format>image/svg+xml</dc:format>
        <dc:type
           rdf:resource="http://purl.org/dc/dcmitype/StillImage" />
        <dc:title></dc:title>
      </cc:Work>
    </rdf:RDF>
  </metadata>
  <g
     inkscape:groupmode="layer"
     id="layer2"
     inkscape:label="main">
    <path
       style="display:inline;fill:#000000;fill-opacity:1;stroke:#000000;stroke-width:1.143;stroke-linecap:butt;stroke-linejoin:miter;stroke-miterlimit:4;stroke-dasharray:none;stroke-opacity:1"
       d="m 303.16513,96.063558 c 10.41303,18.228312 21.87566,22.442062 35.90115,10.030052 L 350.71844,79.670297 C 323.22294,67.751647 319.01607,50.72591 317.47929,28.64563 c -0.19862,-2.756054 2.72464,-2.671562 3.08661,-0.262145 l 0.57666,3.838491 c 2.63665,17.550606 23.976,32.194268 33.23797,38.317915 l 16.02554,-38.48082 0.20518,-4.303334 c -0.0444,-1.650887 2.42915,-1.617758 2.50703,-0.06378 4.76896,34.162807 -16.11238,84.972013 -48.07749,90.813663 -7.16592,1.30958 -19.28528,-6.123 -26.65231,-18.41851 z"
       id="path866-8-9"
       sodipodi:nodetypes="ccccssccccscc" />
    <path
       style="display:inline;fill:#000000;fill-opacity:1;stroke:#000000;stroke-width:12.4;stroke-linecap:round;stroke-linejoin:miter;stroke-miterlimit:4;stroke-dasharray:12.4, 12.4;stroke-dashoffset:0;stroke-opacity:1"
       d="m 289.99106,105.84553 c -19.11482,-6.701652 -27.52514,-13.577353 -35.32768,-29.236013 -21.06326,19.011431 -26.77673,47.943253 -28.50751,79.449063 -11.76821,12.25492 -24.47276,22.17649 -39.27387,26.87358 9.55776,-59.17451 26.56285,-156.116625 67.60194,-156.386414 39.8385,-0.245956 52.68884,40.634211 53.54305,64.887371 -3.95596,6.412541 -11.68709,12.441713 -18.03593,14.412413 z"
       id="path866-8-6"
       sodipodi:nodetypes="ccccccc" />
    <path
       style="display:inline;fill:#f1c524;fill-opacity:1;stroke:none;stroke-width:0;stroke-linecap:round;stroke-linejoin:miter;stroke-miterlimit:4;stroke-dasharray:none;stroke-dashoffset:0;stroke-opacity:1"
       d="m 289.99106,105.84553 c -19.11482,-6.701642 -27.52514,-13.577343 -35.32768,-29.236003 -21.06326,19.011421 -26.77673,47.943243 -28.50751,79.449053 -11.76821,12.25492 -24.47276,22.17649 -39.27387,26.87358 9.55776,-59.17451 26.56285,-156.11662 67.60194,-156.386409 39.8385,-0.245956 52.68884,40.634209 53.54305,64.887366 -3.95596,6.412541 -11.68709,12.441713 -18.03593,14.412413 z"
       id="path866-8"
       sodipodi:nodetypes="ccccccc" />
    <ellipse
       style="fill:#000000;fill-opacity:1;stroke:none;stroke-width:8.143;stroke-linecap:round;stroke-linejoin:round;stroke-miterlimit:4;stroke-dasharray:none;stroke-dashoffset:3.04554;paint-order:stroke fill markers"
       id="path928"
       cx="275.26343"
       cy="51.199825"
       rx="6.0559535"
       ry="5.822423" />
  </g>
</svg>
